<?xml version="1.0" standalone="no"?>
<!DOCTYPE svg PUBLIC "-//W3C//DTD SVG 20010904//EN"
 "http://www.w3.org/TR/2001/REC-SVG-20010904/DTD/svg10.dtd">
<svg version="1.0" xmlns="http://www.w3.org/2000/svg"
 width="1420.000000pt" height="1420.000000pt" viewBox="0 0 1420.000000 1420.000000"
 preserveAspectRatio="xMidYMid meet">
<metadata>
Created by potrace 1.11, written by Peter Selinger 2001-2013
</metadata>
<g transform="translate(0.000000,1420.000000) scale(0.100000,-0.100000)"
fill="#000000" stroke="none">
<path d="M8528 9765 c-2 -2 -57 -6 -123 -10 -65 -4 -126 -8 -135 -10 -8 -1
-51 -6 -94 -10 -43 -4 -86 -8 -95 -10 -9 -1 -43 -6 -76 -9 -33 -4 -85 -11
-115 -16 -30 -5 -73 -12 -95 -15 -72 -10 -318 -56 -400 -75 -45 -11 -92 -21
-105 -24 -374 -73 -1153 -330 -1590 -525 -77 -34 -37 -23 66 19 275 110 816
286 1002 325 9 2 67 15 127 30 114 27 137 32 270 59 119 24 119 24 161 30 22
4 64 11 95 16 31 6 76 12 100 15 24 3 53 6 64 9 11 2 49 7 85 11 36 3 79 8 95
10 17 2 71 7 120 10 50 4 110 8 135 10 56 5 436 5 510 1 65 -4 204 -16 240
-21 317 -42 594 -123 800 -233 217 -116 390 -283 483 -469 32 -62 72 -180 84
-243 9 -49 11 -307 3 -354 l-5 -29 321 0 c176 0 326 3 331 6 6 4 14 40 19 79
42 396 -75 702 -368 965 -115 103 -346 228 -548 298 -142 49 -388 107 -509
121 -25 3 -57 7 -71 9 -14 3 -56 7 -95 10 -38 3 -90 8 -115 12 -43 5 -567 13
-572 8z"/>
<path d="M5625 9030 c-3 -6 1 -7 9 -4 18 7 21 14 7 14 -6 0 -13 -4 -16 -10z"/>
<path d="M6746 8050 c-54 -17 -96 -54 -124 -110 -23 -48 -27 -67 -27 -145 0
-142 38 -202 234 -366 83 -70 124 -141 123 -214 0 -96 -48 -151 -127 -148 -24
1 -53 6 -64 13 -32 17 -55 69 -57 135 -1 33 -3 64 -3 68 -1 4 -27 7 -58 5
l-58 -3 1 -55 c3 -109 22 -167 73 -216 47 -46 100 -63 184 -60 149 5 224 85
232 244 6 130 -37 216 -159 317 -164 136 -207 200 -201 296 6 94 51 141 132
135 69 -5 103 -45 108 -126 1 -27 5 -52 8 -57 3 -4 29 -8 59 -7 l53 1 -2 57
c-4 105 -35 168 -107 213 -33 21 -56 27 -116 29 -41 2 -88 -1 -104 -6z"/>
<path d="M7862 8035 c-63 -32 -99 -82 -116 -157 -14 -61 -15 -690 -2 -748 28
-119 131 -189 265 -177 117 10 186 66 214 175 18 71 16 710 -2 767 -35 109
-102 157 -226 163 -71 3 -86 1 -133 -23z m202 -113 c44 -39 47 -65 46 -418 0
-364 -3 -386 -55 -420 -39 -25 -100 -25 -139 1 -58 39 -60 49 -61 395 0 173 2
332 6 354 8 44 36 86 70 104 31 16 107 7 133 -16z"/>
<path d="M8499 8051 c-71 -22 -120 -73 -144 -149 -15 -45 -17 -103 -17 -385 0
-387 4 -424 63 -490 46 -53 98 -74 186 -75 115 0 202 63 228 166 18 68 20 242
3 243 -16 1 -90 1 -100 0 -4 -1 -7 -44 -7 -96 0 -59 -6 -107 -15 -129 -35 -85
-155 -98 -209 -23 -22 31 -22 39 -25 357 -2 179 0 345 3 370 5 33 16 53 41 77
31 29 39 32 85 28 86 -5 119 -55 122 -185 1 -39 5 -70 10 -70 4 0 30 0 58 0
l50 0 -2 84 c-3 149 -52 238 -147 271 -48 16 -139 19 -183 6z"/>
<path d="M2158 8045 c-2 -2 -21 -5 -43 -8 -51 -6 -73 -14 -113 -44 -104 -77
-116 -302 -23 -430 15 -21 71 -80 124 -132 107 -105 139 -158 140 -235 0 -42
-4 -53 -27 -73 -17 -14 -40 -23 -61 -23 -54 0 -85 45 -83 120 1 62 4 60 -82
60 l-81 0 2 -67 c4 -165 73 -253 212 -269 106 -12 210 28 252 98 50 86 53 224
5 325 -22 49 -54 88 -139 172 -118 116 -151 168 -152 234 -1 48 15 95 33 102
79 29 128 -8 128 -94 0 -22 5 -41 13 -43 6 -3 43 -4 81 -4 80 1 80 2 64 104
-18 113 -84 180 -195 200 -29 5 -54 8 -55 7z"/>
<path d="M7139 8023 c-3 -16 -2 -41 1 -58 l5 -30 95 0 95 0 2 -470 c1 -258 2
-477 2 -487 1 -13 11 -16 63 -15 l61 2 0 486 0 486 91 0 c50 1 96 2 101 2 6 1
10 26 10 56 l0 55 -261 0 -262 0 -3 -27z"/>
<path d="M8939 8033 c0 -10 -1 -254 -2 -543 l0 -525 61 -2 62 -3 0 181 0 182
31 53 31 54 115 -233 116 -234 63 -1 63 -1 -23 52 c-13 29 -76 162 -141 297
-111 233 -116 245 -102 270 8 14 29 52 47 85 69 126 183 330 190 340 27 38 21
45 -43 45 l-62 0 -45 -82 c-25 -45 -69 -125 -97 -178 -29 -52 -72 -130 -95
-174 l-43 -78 -3 256 -2 256 -60 0 c-50 0 -60 -3 -61 -17z"/>
<path d="M9810 7506 l0 -544 53 1 52 2 1 403 c1 222 4 405 6 407 2 3 12 -32
21 -78 9 -45 32 -158 52 -252 19 -93 37 -180 40 -193 2 -12 6 -30 9 -40 3 -9
7 -33 11 -52 3 -19 13 -71 23 -115 l17 -80 60 0 60 0 47 235 c26 129 49 249
52 265 6 34 13 68 21 105 8 38 14 69 26 138 6 34 14 62 18 62 3 0 6 -182 6
-404 l0 -404 57 -1 c32 0 58 3 59 7 1 9 1 1042 0 1065 -1 15 -12 17 -85 17
-92 0 -89 2 -100 -65 -3 -16 -8 -41 -11 -55 -2 -14 -7 -36 -9 -50 -3 -20 -98
-489 -111 -550 -1 -8 -6 -35 -11 -60 -8 -44 -9 -53 -14 -67 -1 -5 -14 53 -30
127 -55 267 -82 397 -112 540 -16 80 -31 152 -33 160 -1 12 -21 16 -88 18
l-87 3 0 -545z m577 282 c-3 -8 -6 -5 -6 6 -1 11 2 17 5 13 3 -3 4 -12 1 -19z"/>
<path d="M10796 8033 c-3 -10 -8 -36 -12 -58 -4 -22 -8 -49 -11 -60 -4 -19 -9
-46 -33 -180 -6 -33 -15 -80 -20 -105 -5 -25 -12 -57 -14 -73 -3 -15 -7 -35
-10 -45 -3 -9 -7 -33 -10 -52 -3 -19 -8 -46 -11 -60 -4 -19 -47 -245 -80 -421
-3 -13 7 -15 53 -15 l56 1 12 50 c7 28 16 73 20 100 3 28 8 53 11 58 2 4 64 7
138 7 l134 0 11 -53 c6 -29 13 -67 16 -83 14 -86 9 -81 78 -82 l63 -1 -13 67
c-7 37 -36 186 -64 332 -28 146 -66 344 -84 440 -19 96 -37 192 -40 213 l-7
37 -89 0 c-76 0 -89 -3 -94 -17z m108 -243 c4 -19 27 -138 51 -264 25 -126 45
-231 45 -233 0 -1 -53 -3 -119 -3 l-118 0 13 58 c7 31 15 73 18 92 3 19 21
116 40 215 20 99 38 191 40 205 2 14 5 27 6 30 2 5 12 -34 24 -100z"/>
<path d="M11279 8043 c-1 -11 -1 -1055 0 -1069 1 -7 24 -11 63 -10 l62 1 -1
231 0 231 73 -3 c145 -5 163 -34 168 -266 2 -90 6 -170 10 -179 5 -12 23 -16
71 -17 63 -1 65 0 54 20 -7 13 -12 90 -14 192 -1 147 -5 177 -22 217 -19 42
-57 79 -91 90 -8 3 1 14 24 29 60 40 85 99 88 214 6 180 -24 259 -116 301 -45
21 -65 23 -209 25 -87 0 -159 -3 -160 -7z m309 -122 c38 -20 54 -73 54 -180 1
-174 -35 -208 -213 -202 l-26 1 0 199 0 198 81 -1 c45 -1 92 -8 104 -15z"/>
<path d="M11890 7505 l0 -545 62 3 62 2 -2 179 -1 180 32 53 32 54 115 -233
115 -233 63 -3 c34 -1 62 0 62 2 0 8 -209 447 -256 539 l-25 48 112 202 c124
224 159 288 159 294 0 2 -28 3 -62 1 l-63 -3 -130 -235 c-72 -129 -136 -244
-142 -255 -10 -16 -13 14 -12 165 0 102 0 218 0 258 l-1 72 -60 0 -60 0 0
-545z"/>
<path d="M12523 7510 l0 -540 21 -5 c12 -2 113 -3 226 -2 l204 2 -1 23 c0 12
-1 37 -2 55 l-1 32 -160 0 -160 0 -1 62 c0 35 0 106 0 158 0 52 0 110 0 129
l1 34 123 -1 c68 0 128 3 134 6 5 3 9 16 7 29 -1 13 -3 35 -3 51 l-1 27 -130
0 -130 0 -1 55 c0 30 0 98 0 150 0 52 0 110 0 129 l1 34 160 -2 c177 -1 168
-5 161 71 l-3 43 -223 0 -222 0 0 -540z"/>
<path d="M13040 7995 c0 -37 4 -55 13 -56 6 -1 51 -1 99 -1 l88 -1 2 -486 3
-486 60 0 60 0 1 475 c1 261 2 480 3 486 1 8 31 11 91 11 49 0 93 3 97 7 4 4
8 29 9 56 l1 50 -263 0 -264 0 0 -55z"/>
<path d="M826 8013 c-3 -10 -8 -38 -11 -63 -3 -25 -9 -58 -11 -75 -3 -16 -7
-39 -9 -50 -4 -33 -27 -179 -30 -195 -2 -8 -8 -51 -15 -95 -7 -44 -14 -89 -16
-100 -2 -11 -7 -38 -9 -60 -3 -22 -10 -62 -15 -90 -5 -27 -12 -70 -15 -95 -4
-25 -13 -81 -21 -125 -21 -123 -26 -114 63 -112 l77 2 15 95 16 95 102 2 101
1 11 -81 c18 -126 10 -116 107 -116 46 0 84 4 84 8 0 4 -4 32 -10 62 -11 62
-16 94 -26 164 -7 50 -10 69 -18 115 -3 14 -8 43 -11 65 -3 22 -16 105 -30
185 -13 80 -26 165 -30 190 -3 25 -15 97 -26 161 -10 64 -19 119 -19 123 0 3
-56 6 -124 6 -110 0 -125 -2 -130 -17z m128 -248 c4 -22 9 -56 12 -75 3 -19 9
-60 14 -90 6 -30 12 -75 15 -100 3 -25 7 -56 10 -70 13 -86 16 -130 8 -131
-60 -5 -138 0 -141 9 -2 7 4 60 13 120 9 59 19 123 21 142 3 19 7 46 9 60 3
14 10 60 17 102 6 43 12 77 14 75 1 -1 5 -20 8 -42z"/>
<path d="M1316 7613 c1 -423 4 -488 29 -546 58 -137 293 -173 407 -61 70 67
72 83 73 582 l1 442 -82 0 -82 0 0 -402 c-1 -222 -1 -420 -1 -441 -1 -53 -36
-87 -90 -87 -31 0 -44 6 -60 26 -21 26 -21 37 -21 465 l0 439 -87 0 -88 0 1
-417z"/>
<path d="M2460 7950 l0 -79 88 -3 87 -3 2 -445 c1 -245 2 -451 2 -458 1 -10
22 -12 84 -10 l82 3 2 455 c1 369 4 455 15 457 7 1 47 4 88 5 l75 3 0 78 0 77
-262 0 -263 0 0 -80z"/>
<path d="M3055 7493 l0 -538 88 -2 87 -2 0 220 0 219 49 0 c59 0 98 -27 106
-73 3 -18 7 -102 8 -187 2 -85 6 -160 10 -167 4 -7 39 -11 93 -11 l86 0 -8 26
c-4 15 -8 97 -9 182 -1 87 -7 175 -15 200 -15 55 -43 97 -72 106 -20 6 -20 7
11 36 59 55 73 102 73 244 -1 150 -23 206 -101 252 -45 26 -51 27 -226 30
l-180 4 0 -539z m304 364 c23 -19 32 -57 32 -148 0 -91 -15 -141 -46 -153 -9
-3 -39 -6 -66 -6 l-49 0 -1 138 c-1 155 0 175 11 182 14 9 104 -1 119 -13z"/>
<path d="M3796 8003 c-3 -16 -8 -46 -11 -68 -6 -38 -10 -61 -20 -115 -3 -14
-8 -45 -11 -70 -3 -25 -7 -52 -9 -60 -2 -8 -7 -33 -10 -55 -3 -23 -7 -50 -9
-60 -2 -11 -7 -40 -11 -65 -3 -25 -8 -56 -10 -70 -3 -14 -18 -110 -35 -215
-17 -104 -33 -209 -37 -233 l-6 -42 77 1 c42 1 78 4 80 8 2 3 7 31 11 61 3 30
10 69 15 87 4 17 6 34 3 37 -4 3 42 5 100 5 l106 -2 6 -46 c4 -25 11 -70 16
-98 l10 -53 85 0 c46 0 84 4 84 9 0 4 -6 46 -14 92 -8 46 -17 98 -19 114 -3
17 -7 46 -11 65 -11 66 -36 225 -41 265 -3 22 -10 65 -15 95 -5 30 -12 69 -14
85 -3 17 -17 101 -31 187 -14 86 -25 159 -25 162 0 3 -56 6 -124 6 l-124 0 -6
-27z m138 -300 c3 -32 10 -72 15 -90 5 -17 7 -33 5 -35 -2 -3 3 -42 12 -89 8
-46 17 -108 20 -136 l6 -53 -31 -1 c-94 -2 -112 -2 -117 4 -5 4 18 181 41 313
2 12 7 48 11 80 4 33 9 62 10 67 1 4 2 17 4 30 2 20 2 20 10 -5 4 -15 11 -53
14 -85z"/>
<path d="M4295 7493 l0 -538 205 -3 c113 -1 215 0 226 3 19 4 21 11 20 80 l-1
75 -137 0 c-125 0 -138 2 -138 18 -1 9 -1 216 -1 460 l1 442 -88 0 -87 0 0
-537z"/>
<path d="M4815 7493 l0 -538 85 0 85 0 2 538 2 537 -87 0 -88 0 1 -537z"/>
<path d="M5229 8005 c-1 -14 -2 -28 -3 -32 -1 -5 -5 -29 -9 -54 -4 -25 -10
-59 -13 -75 -13 -76 -23 -143 -29 -179 -3 -22 -7 -51 -10 -65 -52 -318 -71
-439 -80 -505 -3 -27 -10 -68 -15 -90 -5 -22 -10 -43 -10 -46 0 -9 160 -11
161 -2 0 4 2 15 3 23 2 8 7 42 11 75 5 33 9 63 11 68 1 4 2 11 3 15 0 5 46 9
101 10 85 1 100 -2 104 -16 5 -18 14 -74 21 -130 2 -18 7 -37 10 -42 8 -13
171 -8 168 5 -1 6 -4 30 -7 55 -4 25 -9 56 -11 70 -3 14 -7 39 -9 55 -3 17
-12 75 -22 130 -18 109 -19 115 -29 195 -4 30 -9 58 -11 61 -2 4 -6 27 -9 50
-3 24 -14 96 -25 159 -10 63 -21 133 -24 155 -3 22 -9 58 -13 80 -4 22 -6 43
-5 48 1 4 -56 7 -128 7 l-130 0 -1 -25z m127 -213 c0 -4 4 -27 8 -52 8 -47 11
-66 21 -140 4 -25 8 -58 11 -75 25 -168 32 -220 30 -222 -3 -3 -117 -6 -143
-4 -12 1 -11 27 2 91 2 13 7 42 10 65 4 22 8 51 10 65 2 14 6 43 10 65 3 23 7
50 9 60 8 44 20 151 17 160 -1 6 1 6 6 2 4 -5 8 -12 9 -15z"/>
<path d="M5730 7490 l0 -540 68 0 c37 0 72 4 78 8 7 5 10 126 9 374 0 202 1
365 3 364 1 -2 34 -120 72 -262 38 -143 74 -272 79 -289 5 -16 19 -67 31 -113
l22 -83 87 3 86 3 2 538 3 537 -78 0 -77 0 0 -304 c0 -167 -3 -302 -6 -300 -4
2 -10 21 -14 41 -5 21 -10 43 -11 48 -2 6 -11 42 -22 80 -10 39 -41 152 -68
252 l-49 183 -107 0 -108 0 0 -540z"/>
<path d="M2573 6683 c-129 -250 -178 -369 -218 -528 -32 -126 -42 -203 -44
-330 -6 -417 214 -766 624 -990 155 -85 395 -170 590 -211 121 -25 113 -23
210 -39 17 -3 55 -7 85 -11 30 -3 66 -7 80 -10 144 -24 791 -24 965 1 17 2 57
7 90 10 33 3 71 7 85 10 14 2 52 7 85 11 33 3 69 8 80 9 36 5 100 15 120 19
11 2 40 7 65 11 25 4 54 9 65 11 10 2 37 6 60 9 22 4 56 10 75 15 19 5 51 12
70 15 122 21 484 112 710 180 608 181 1301 469 1825 757 55 31 127 70 160 88
65 36 135 79 135 83 0 1 -186 2 -412 2 l-413 -1 -170 -86 c-532 -268 -1179
-508 -1743 -647 -146 -36 -424 -96 -489 -106 -15 -2 -102 -15 -193 -29 -91
-14 -197 -28 -235 -32 -39 -3 -83 -8 -100 -10 -216 -24 -813 -24 -886 0 -8 3
-42 7 -76 11 -152 14 -367 63 -534 121 -350 121 -603 322 -733 580 -19 39 -47
111 -62 160 -24 79 -27 106 -28 244 -1 85 2 175 7 200 20 125 85 328 137 430
24 47 41 90 36 90 -2 0 -13 -17 -23 -37z"/>
<path d="M4010 6556 c0 -22 4 -24 35 -22 26 3 35 -1 36 -13 1 -9 3 -90 4 -181
1 -91 3 -170 4 -175 2 -15 39 -16 43 -2 3 7 4 92 3 189 0 118 3 179 10 182 6
2 23 2 38 1 23 -3 27 1 27 21 0 24 -1 24 -100 24 -99 0 -100 0 -100 -24z"/>
<path d="M4597 6573 c-3 -7 -2 -397 2 -415 1 -7 21 -5 36 4 6 3 9 43 9 87 -1
45 2 83 6 86 9 6 80 -14 81 -23 0 -4 2 -36 3 -72 2 -74 8 -89 35 -87 18 1 19
9 16 85 -2 58 -8 88 -19 101 -14 16 -14 20 3 54 28 54 21 134 -14 165 -21 18
-38 22 -90 22 -35 0 -66 -3 -68 -7z m125 -51 c16 -16 15 -107 -1 -126 -8 -9
-28 -16 -45 -16 l-31 0 -2 78 -1 78 34 -1 c20 -1 40 -7 46 -13z"/>
<path d="M5249 6568 c-1 -14 -1 -17 -18 -98 -16 -76 -19 -93 -36 -190 -9 -47
-18 -95 -20 -106 -4 -17 0 -21 18 -20 17 1 24 10 31 44 l10 42 53 0 c29 0 53
-3 54 -7 1 -5 2 -20 3 -36 3 -32 7 -36 35 -42 27 -5 27 -3 -5 158 -14 73 -31
161 -38 197 -13 65 -13 65 -49 68 -25 2 -37 -1 -38 -10z m55 -155 c8 -45 18
-93 22 -107 5 -23 3 -24 -40 -23 -25 0 -46 1 -46 3 0 2 30 161 35 184 2 8 4
19 4 24 2 23 10 -5 25 -81z"/>
<path d="M5789 6553 c0 -16 -1 -111 -1 -213 l-1 -185 59 -1 c79 -1 118 16 132
55 6 17 11 91 10 164 -1 186 -15 207 -139 207 -58 0 -59 -1 -60 -27z m136 -34
c6 -6 10 -67 10 -155 0 -159 -2 -164 -62 -164 -27 0 -33 4 -34 23 -3 90 0 298
5 305 7 12 67 5 81 -9z"/>
<path d="M6379 6553 c-6 -171 -2 -393 6 -396 6 -2 46 -3 90 -3 73 1 80 3 80
21 0 18 -8 20 -62 23 l-63 3 0 75 0 76 47 -3 c40 -3 48 0 51 15 5 25 -12 34
-59 29 l-39 -4 0 73 0 73 53 -1 c65 -1 76 3 74 27 -1 17 -10 19 -89 19 l-88 0
-1 -27z"/>
<path d="M7376 6571 c-12 -18 6 -41 29 -37 44 8 46 0 46 -197 0 -178 1 -187
19 -184 11 2 22 6 26 10 4 3 7 89 8 189 l1 183 38 -1 c32 -1 37 2 37 22 0 24
-2 24 -99 24 -55 0 -102 -4 -105 -9z"/>
<path d="M8000 6561 c0 -11 -16 -100 -35 -198 -19 -98 -35 -185 -35 -193 0 -9
9 -16 20 -17 14 -1 22 6 26 25 14 63 13 62 65 62 l49 0 11 -44 c9 -35 15 -43
32 -42 17 1 21 7 19 26 -3 29 -35 199 -59 318 l-16 82 -39 0 c-31 0 -38 -4
-38 -19z m53 -108 c3 -21 8 -49 12 -63 3 -14 8 -44 11 -67 l5 -42 -41 1 c-45
0 -48 8 -29 88 17 69 17 73 18 98 1 36 18 25 24 -15z"/>
<path d="M8546 6373 c1 -114 2 -210 3 -214 0 -3 38 -5 84 -4 75 0 82 2 82 20
0 17 -8 20 -62 23 l-61 3 0 187 1 187 -24 3 -24 3 1 -208z"/>
<path d="M9099 6553 c-3 -94 0 -395 4 -399 3 -3 15 -3 26 1 19 6 21 14 21 79
0 113 17 115 68 8 36 -76 45 -88 67 -88 14 0 25 1 25 2 0 2 -24 54 -54 116
l-54 113 31 55 c16 30 41 74 55 98 l24 42 -29 0 c-25 0 -33 -9 -78 -95 l-50
-96 -3 96 c-3 94 -3 95 -27 95 -20 0 -25 -5 -26 -27z"/>
<path d="M2878 6392 c-33 -3 -38 -7 -38 -28 l0 -24 445 0 445 0 0 25 c0 20 -5
25 -27 26 -108 2 -795 3 -825 1z"/>
<path d="M9643 6392 c-17 -3 -23 -10 -23 -28 l0 -24 445 0 445 0 0 25 c0 14
-6 25 -12 26 -46 2 -837 3 -855 1z"/>
</g>
</svg>
